<svg version="1.2" xmlns="http://www.w3.org/2000/svg" viewBox="0 0 950 880" width="950" height="880">
	<title>nurselist_logo_black-svg</title>
	<style>
		.s0 { fill: #808080 } 
		.s1 { fill: #040404 } 
		.s2 { fill: #060606 } 
		.s3 { fill: #030303 } 
		.s4 { fill: #050505 } 
		.s5 { fill: #484848 } 
	</style>
	<g id="Layer">
	</g>
	<g id="Layer">
		<path id="Layer" fill-rule="evenodd" class="s0" d="m469.5 144.5q3.3-1.9 7 0-0.2 0.9-1 1-2.6-1.4-6-1z"/>
	</g>
	<g id="Layer">
		<path id="Layer" fill-rule="evenodd" class="s1" d="m469.5 144.5q3.4-0.4 6 1-48.9 64.4-74.5 142-0.6 2.1-2.5 3-12.9-9.4-24-21 23.1-65.3 62-122 16.3-3.9 33-3z"/>
	</g>
	<g id="Layer">
		<path id="Layer" fill-rule="evenodd" class="s1" d="m541.5 151.5q16.9 4.1 33 10.5-76.9 81.5-102.5 191.5-12.9-10.4-25-22 19.6-79.8 68-146 13.6-16.8 26.5-34z"/>
	</g>
	<g id="Layer">
		<path id="Layer" fill-rule="evenodd" class="s2" d="m367.5 164.5q0.8 0.1 1 1-19.1 34.2-33.5 71-12-10-24-20 4.6-16.5 14.5-30.5 20.5-12 42-21.5z"/>
	</g>
	<g id="Layer">
		<path id="Layer" fill-rule="evenodd" class="s1" d="m625.5 186.5q14.4 7.2 27 17.5-93.4 86.1-105 213.5-13-11.8-26.5-23 8.8-77.4 51-143 23.1-35.4 53.5-65z"/>
	</g>
	<g id="Layer">
		<path id="Layer" fill-rule="evenodd" class="s1" d="m264.5 235.5q3.1 1.4 6 3.5 173.1 148.6 347.5 295.5-45.5-128.9 28-244 19.6-27.1 44.5-49.5 1-1 2 0 9.5 10.8 18 22.5-98.1 91.2-74.5 224 16.3 72.3 70.5 122.5-8.3 10.3-16.5 20.5-1.7 2.6-4.5 1.5-178.8-151.8-357.5-303.5 36.2 99.4-3 198-23.9 54.8-68.5 94.5-1 1-2 0-8.8-10.3-16.5-21.5-1-1.5 0-3 88.3-83.3 75-205-11.5-78.1-67.5-133 9-12 19-23z"/>
	</g>
	<g id="Layer">
		<path id="Layer" fill-rule="evenodd" class="s3" d="m217.5 302.5q58.1 65.6 44.5 153-10.1 56.3-50.5 96-7.6-14.6-12-30.5 55.7-73.5 21.5-159.5-7.5-15-16.5-29 5.7-15.4 13-30z"/>
	</g>
	<g id="Layer">
		<path id="Layer" fill-rule="evenodd" class="s1" d="m736.5 308.5q8.5 13.4 13 29-0.3 2.2-1.5 4-52.5 64.1-29 144 9.2 28.6 28.5 51.5-5.9 15.1-13.5 29.5-64.1-67.4-50-160 11-57.5 52.5-98z"/>
	</g>
	<g id="Layer">
		<path id="Layer" fill-rule="evenodd" class="s1" d="m397.5 445.5q13.9 11.2 27.5 23-16 123.9-106.5 209-13.6-7.8-25-18.5 93.8-85.9 104-213.5z"/>
	</g>
	<g id="Layer">
		<path id="Layer" fill-rule="evenodd" class="s1" d="m473.5 509.5q13 11.5 26 23-27.6 103.7-99.5 182-15-4.3-29.5-10-1.5-0.8-0.5-2 78.4-81.8 103.5-193z"/>
	</g>
	<g id="Layer">
		<path id="Layer" fill-rule="evenodd" class="s1" d="m492.5 723.5q-12.8 0.5-25-1 38.1-50.5 63.5-109 8.6-20.8 16-42 11.8 11.3 24.5 21.5-24.1 69-66 128.5-6.2 2.7-13 2z"/>
	</g>
	<g id="Layer">
		<path id="Layer" fill-rule="evenodd" class="s4" d="m610.5 626.5q12.9 9.9 25 21-8.5 20.8-19 40.5-20.7 11.4-43 19.5-0.5-0.5-1-1 22.2-38.4 38-80z"/>
	</g>
	<g id="Layer">
		<path id="Layer" fill-rule="evenodd" class="s5" d="m467.5 722.5q12.2 1.5 25 1-12.8 2-26 0 0.2-0.9 1-1z"/>
	</g>
</svg>