<svg version="1.2" xmlns="http://www.w3.org/2000/svg" viewBox="0 0 1024 1024" width="1024" height="1024">
	<title>two_nurses_talking-svg</title>
	<style>
		.s0 { fill: #e5f4fc } 
		.s1 { fill: #e2f3fc } 
		.s2 { fill: #e1f3fd } 
		.s3 { fill: #fdfefe } 
		.s4 { fill: #072f67 } 
		.s5 { fill: #082c63 } 
		.s6 { fill: #e3f4fd } 
		.s7 { fill: #d6effc } 
		.s8 { fill: #def1fc } 
		.s9 { fill: #152030 } 
		.s10 { fill: #2a2634 } 
		.s11 { fill: #402c41 } 
		.s12 { fill: #fdfdfe } 
		.s13 { fill: #de8770 } 
		.s14 { fill: #e9987f } 
		.s15 { fill: #1d1f2d } 
		.s16 { fill: #231f2e } 
		.s17 { fill: #2d292c } 
		.s18 { fill: #6ed2fe } 
		.s19 { fill: #f3ebec } 
		.s20 { fill: #ce745d } 
		.s21 { fill: #e59983 } 
		.s22 { fill: #32303f } 
		.s23 { fill: #2e2228 } 
		.s24 { fill: #cb6f5d } 
		.s25 { fill: #e6f9fc } 
		.s26 { fill: #122b60 } 
		.s27 { fill: #e9997f } 
		.s28 { fill: #f9fcfd } 
		.s29 { fill: #f5fbfc } 
		.s30 { fill: #45a9f5 } 
		.s31 { fill: #3ba1ef } 
		.s32 { fill: #f3f8fa } 
		.s33 { fill: #143480 } 
		.s34 { fill: #174283 } 
		.s35 { fill: #3da1eb } 
		.s36 { fill: #f3fcfb } 
		.s37 { fill: #3898e1 } 
		.s38 { fill: #41a7ef } 
		.s39 { fill: #2072c5 } 
		.s40 { fill: #c9928c } 
		.s41 { fill: #1a3670 } 
		.s42 { fill: #70b2da } 
		.s43 { fill: #d6eafc } 
		.s44 { fill: #dbf0fc } 
		.s45 { fill: #2380d6 } 
		.s46 { fill: #3c9eed } 
		.s47 { fill: #7bbfe9 } 
		.s48 { fill: #b9dffd } 
		.s49 { fill: #c6eafd } 
		.s50 { fill: #2b7fc6 } 
		.s51 { fill: #fcfdfd } 
		.s52 { fill: #df8b76 } 
		.s53 { fill: #0b2f63 } 
		.s54 { fill: #ee9580 } 
		.s55 { fill: #e99682 } 
		.s56 { fill: #e98d76 } 
		.s57 { fill: #7dd0fd } 
		.s58 { fill: #45aaf6 } 
		.s59 { fill: #659bd6 } 
		.s60 { fill: #bfe0fd } 
		.s61 { fill: #cbe4fd } 
		.s62 { fill: #b2e2fc } 
		.s63 { fill: #d7ebfd } 
		.s64 { fill: #fbfcfd } 
		.s65 { fill: #fdfdfd } 
		.s66 { fill: #20469b } 
		.s67 { fill: #c2ebfd } 
		.s68 { fill: #99dcfd } 
		.s69 { fill: #c7eafd } 
		.s70 { fill: #95dafd } 
		.s71 { fill: #bee7fd } 
		.s72 { fill: #bfe7fb } 
		.s73 { fill: #043675 } 
		.s74 { fill: #2188df } 
		.s75 { fill: #053777 } 
		.s76 { fill: #b9e6fe } 
		.s77 { fill: #c3e6fb } 
		.s78 { fill: #04316d } 
		.s79 { fill: #c8ebfd } 
		.s80 { fill: #b2e2fb } 
		.s81 { fill: #2e88d7 } 
		.s82 { fill: #b2e4fe } 
		.s83 { fill: #70cbfd } 
		.s84 { fill: #a6dffb } 
		.s85 { fill: #b0e3fc } 
		.s86 { fill: #5abff9 } 
		.s87 { fill: #238adf } 
		.s88 { fill: #e2f4fd } 
		.s89 { fill: #a8e2fd } 
		.s90 { fill: #93dbfe } 
		.s91 { fill: #abe2fe } 
		.s92 { fill: #5ec2fc } 
		.s93 { fill: #c4e6f9 } 
		.s94 { fill: #5ec1fb } 
		.s95 { fill: #d1edfc } 
		.s96 { fill: #a6dffe } 
		.s97 { fill: #90d9fc } 
		.s98 { fill: #deeaf7 } 
		.s99 { fill: #ad8690 } 
		.s100 { fill: #e0edf7 } 
		.s101 { fill: #b78d8a } 
		.s102 { fill: #deeaf6 } 
		.s103 { fill: #e48b73 } 
		.s104 { fill: #e88874 } 
		.s105 { fill: #c2dcee } 
		.s106 { fill: #cd8c8e } 
		.s107 { fill: #e88275 } 
		.s108 { fill: #b48391 } 
		.s109 { fill: #c47a79 } 
		.s110 { fill: #d3e8f7 } 
		.s111 { fill: #1866b2 } 
		.s112 { fill: #0d5ca7 } 
		.s113 { fill: #186fc1 } 
		.s114 { fill: #1e80d2 } 
	</style>
	<g id="Layer">
	</g>
	<g id="Layer">
		<path id="Layer" class="s0" d="m871.5 559.5q-3.6-3.7-9-3-11.2 0.3-22 3-1-0.5-2-1 6.1-2.3 12-5.5 3.4-2.6 5-6.5 7.8-4.6 16.5-2 3.9-45.1-37.5-63.5-27.3-9.9-50 8-2.5 0.7-5 0.5-31.4-2.4-51.5 22-21.4 27.9-16 63 9.2 49.4 47.5 81-21.2 52.6-27 109-22.3 19.4-48 33.5-1.9 2.9-5 4.5-1 3.7-2 7-2.6-58.5-7-117 8.2-67.2 8-135-1-28-2.5-56 9.7 5.2 20.5 7 15.8-2.1 12.5-18-3.8-15-7.5-30-0.2-5.5 0.5-11 3.3-6.5 8-12 1.7-4.4 2.5-9-2.2-8.4-6-16 1.9-6.8 5.5-13 2.9-11 0-22-13-23.5-35.5-38.5-14.1-13.1-26-28-10.5-8.6-24-7-15 3.4-26.5 13.5-3.4 7.1-2.5 15-0.4 2.4 1 4-2.6 20.2 11 35 3.8 3.6 9 3 0.2 2.6 1 5 0.5 8.4-2 16-10.1 2.3-20 5.5-12.3 6.8-15.5 20.5-2.8 13.4-3.5 27-3.4-0.4-6 1-6.5 0-13 0-9.9 0.3-19.5 2-1 2 0 4 7.5 6.3 14.5 13 1.3 13.1 12.5 20 1.7 5.6 4 11 1.1 2.3 3.5 3 4.9 4 11 6.5 0.9 1.3 1 3-4.2 20.3-8 40.5 0 1 0 2-1.2 8.7-1.5 18-28.5-18.5-62.5-14.5-11.5 0.7-22 4.5-36.8 13.3-55 48-16.1 25-19.5 55-0.6 30.5 0.5 61-0.6 6.6-2.5 13 3.5-48.6-44-40-0.7-1.9-0.5-4 8.2-56 16.5-112 1.5-9.4 1.5-19 2.4-0.8 5-1 0-17.5 0-35-6.1 0.5-12-1-2.8-3-1.5-7 0.2 3.3 2.5 5.5 12.5 4.3 11-8.5-11.1-0.1-21.5 0-2-3.1-1.5-7 11 2.3 23 2.5 1.5-8.1 1-16.5 20.2-6.2 24-26 5-10 10-20-0.1-2.7-1.5-5-2.6-2.3-4.5-5 1.9-3.3 3-7 1.8-1.8 0-4-19.5-1.4-39 0 3.7-1.5 8-1-1.7-14.9-8.5-28-7-6-16-8-0.7 0.9-0.5 2-3.5-3.9-7-8-1.4-6.9-1-14 9.7 5.4 16.5-3 3.9-8.7 6-18 1.1-3.6-0.5-7 0-2.5 0-5 1-1.5 2-3 0.1-2.2-1-4-1-2.5-2-5 15.6-25.8-14.5-27-6.2-0.1-12 2-12.9-14-26 0-1.9 3.3-3 7-2.1 28.4-9 56-2.7 9.3-8.5 17 7.9 1.8 15.5-1 3 1.2 4.5 4-0.9 0.2-1.5 1-0.9-2.4-3-4-8 3.6-16.5 6.5-12.3 7.8-13.5 22.5-4.9 31.5-10 63-1 8 0 16 1.8 3.7 5.5 5.5 10.5 0.7 21 0.5-1.3 6-1 11.5 22.2-0.6 44.5 0.5 4.3-0.1 8.5-1 2.2-5.8 2.5-12 0.7 7 0.5 14 0 13 0 26-0.5 0-1 0 0.2-9.5-0.5-19-10.8 2.9-22.5 2 0.9 5.2-3 8.5-8.5 1-17 0-2.8-2.7-1.5-6.5 0.4 2.4 1.5 4.5 8 1 16 0 2.7-3.2 2-7.5-14.9-0.1-29.5 2-2.5 22.4-3.5 45-1.7 43-2 86-0.5 0-1 0-5.1 0.9-9 4-4.1 0.3-7 3-10.3 5.3-18 14-5-29.5-16-57-0.1-1.5 1-2.5 5.1-0.8 9-4 8.7-7.8 16.5-16.5 6.9-11.7 13-24 18.8-40.7-13.5-71.5-7.9-6-17-9.5 1.7-1.6 4-2.5-3.6-0.4-5.5-3.5-0.6 0.7-1.5 1-6-8-10-17-7.6-3.8-13-10.5-9.8-6-19.5-1.5-24-7.2-40 12-4 7.3-5.5 15.5 1 0.5 2 1-2.1 10-3 21 0.2 4.3 1 8.5-5.4 7-3.5 16 15.4 53.4 65.5 77.5 1.6 1.2 0 2.5-2.9 2.1-5.5 5-0.3 11.3-1.5 22-15.7-9.1-34-8-2.5 0-5 0-1.7-20.3-15-36 1.3-2.2 4-2.5-4.4-1.5-9-2.5-12.2-15.7-28-27 1.9-2.1 2-5.5-5.5-47.1-3.5-94.5 2.8-26.3 8.5-52-12.8 0.5-25-1 50.5 0 101 0 4 0.1 7.5-2 35 10 48-24 6.5-34.4-25.5-47.5-24.7-2.4-49-0.5-14.5 0-29 0 38.7-68.4 103-113.5 134-89.6 295-71 117.9 15.3 209 91 122.3 110 105.5 274.5-4.2 15.9-7.5 32-4 0-8 0-1.5 7.9-2 16z"/>
	</g>
	<g id="Layer">
		<path id="Layer" class="s1" d="m222.5 171.5q27.4 0.7 24.5 28-10.5 23.7-33.5 11.5-12.5-12.3-5.5-28.5 5.8-7.6 14.5-11z"/>
	</g>
	<g id="Layer">
		<path id="Layer" class="s2" d="m808.5 176.5q15.5-2 19 13-2 17-19 13.5-18-13.2 0-26.5z"/>
	</g>
	<g id="Layer">
		<path id="Layer" class="s3" d="m462.5 304.5q26.3-3.4 36 21-9 1-18 2 18 1.2 36 1.5 6.3 3.6 2 9-19 0.5-38 1-0.7 0.6-1 1.5 9.4 1.5 19 1-3.3 16.4-19 22.5-29.1 4.8-37.5-23.5-3.9-26.3 20.5-36z"/>
	</g>
	<g id="Layer">
		<path id="Layer" class="s4" d="m701.5 460.5q-7.4-21-12.5-43-7.1-22.3-30.5-24-1.3-16-13-27-3-7.7-3-16 6-0.9 4.5-7-3.5-3.5-8.5-4-1.7-5.2-7-6-1.2-1.8-3-3-12.2-6-26-5.5-3 3.2-4 7.5-0.5 0-1 0-0.9-7.9 2.5-15 11.5-10.1 26.5-13.5 13.5-1.6 24 7 11.9 14.9 26 28 22.5 15 35.5 38.5 2.9 11 0 22-3.6 6.2-5.5 13 3.8 7.6 6 16-0.8 4.6-2.5 9-4.7 5.5-8 12-0.7 5.5-0.5 11z"/>
	</g>
	<g id="Layer">
		<path id="Layer" class="s5" d="m383.5 327.5q-4.5 0.2-9-0.5-7.9-2.7-15-6-2.5 5.8-5.5 11.5-1.6 6.4-1.5 13-2.2 0.4-4-1-0.9-3.4-4-5-5.8-1.7-6 5 0.4 4.9 5 6 0 2 0 4-2.3 9.5-5 19-2.1 4.3-6 7.5 2.3 3.5 5 6.5 2.5 5 5 10-1.5 3.7-1 8-4.7-10.4-11-20-1.5-2.8-4.5-4-7.6 2.8-15.5 1 5.8-7.7 8.5-17 6.9-27.6 9-56 1.1-3.7 3-7 13.1-14 26 0 5.8-2.1 12-2 30.1 1.2 14.5 27z"/>
	</g>
	<g id="Layer">
		<path id="Layer" class="s6" d="m176.5 330.5q-7.3 10.3-12 22-1.7 1-3 2-18-0.3-36 0.5-22.3 6.4-19.5 29.5 3.7 13.9 16.5 20-22-1.7-28.5-23-8.6-29.3 16.5-46.5 4.9-2.4 10-4 28-0.8 56-0.5z"/>
	</g>
	<g id="Layer">
		<path id="Layer" class="s7" d="m176.5 330.5q14.5 0 29 0 11.2-0.7 22 2-0.5 3.3 2 5.5-1 2-2 4 2.4 1.6 2 4.5-3-0.2-6 0.5 16 1.2 27.5 13.5 10.5 23.8-11.5 37-1-0.5-2-1 3.2-6.2 5.5-13 1.7-22.8-20.5-28.5-30.5-0.8-61-0.5 1.3-1 3-2 4.7-11.7 12-22z"/>
	</g>
	<g id="Layer">
		<path id="Layer" class="s8" d="m205.5 330.5q24.3-1.9 49 0.5 32 13.1 25.5 47.5-13 34-48 24-3.5 2.1-7.5 2 7.1-2.9 13-8 1 0.5 2 1 22-13.2 11.5-37-11.5-12.3-27.5-13.5 3-0.7 6-0.5 0.4-2.9-2-4.5 1-2 2-4-2.5-2.2-2-5.5-10.8-2.7-22-2z"/>
	</g>
	<g id="Layer">
		<path id="Layer" class="s9" d="m628.5 330.5q1.8 1.2 3 3-7.5-1.1-15-1 0.8-1 2-1.5 5-0.7 10-0.5z"/>
	</g>
	<g id="Layer">
		<path id="Layer" class="s10" d="m598.5 336.5q-1.4-1.6-1-4 0.5 0 1 0 4.1-1.1 9 0-4.7 1.6-9 4z"/>
	</g>
	<g id="Layer">
		<path id="Layer" class="s11" d="m385.5 332.5q1.1 1.8 1 4-2 0-4 0-0.6-3.7 3-4z"/>
	</g>
	<g id="Layer">
		<path id="Layer" class="s12" d="m728.5 334.5q17.8-3.3 27 12-9 1-18 2 17.5 1.2 35 1.5 4.7 2.9 2 8-18 0.8-36 0.5 0 1.5 0 3 9.5 0 19 0-2 12.3-13 18.5-22.8 6.5-31.5-15.5-2.9-20.7 15.5-30z"/>
	</g>
	<g id="Layer">
		<path id="Layer" class="s13" d="m628.5 330.5q-5-0.2-10 0.5-1.2 0.5-2 1.5 7.5-0.1 15 1 5.3 0.8 7 6 5 0.5 8.5 4 1.5 6.1-4.5 7 0 8.3 3 16-0.5 0-1 0-1.4 8.8 0 18 0.1 4.5-2.5 8-7.5-7.8-16.5-13 1.6 0.2 3-0.5 9.4-8.3 13.5-19.5-9.2 11.4-23.5 15-5.2 0.6-9-3-13.6-14.8-11-35 4.3-2.4 9-4-4.9-1.1-9 0 1-4.3 4-7.5 13.8-0.5 26 5.5z"/>
	</g>
	<g id="Layer">
		<path id="Layer" class="s14" d="m363.5 333.5q-2.1 0.7-2 3 6.2 1.2 13 1.5-4.3 0-7 2.5 0 2 0 4 6.4 1.2 12.5 4 2.2-2.3 4.5-1-1.7 2.2-4.5 3-0.5 3.1-1.5 6-4.9 1.5-10 1-2.3 0-4.5-1-1.5 0.5-1.5 2 0.3 1.9 2 3-1 2.9-1.5 6-2.5-1.3-0.5 1.5-1.9 0.3-3 1.5-3.4-2.7-6.5-6-4.6-5.1-8-11-0.6 0.8-1.5 1 0-2 0-4-4.6-1.1-5-6 0.2-6.7 6-5 0.6 2.4 2 4.5-1 1.7-0.5 3.5 3.6-1.4 7.5-1 0.9-6.5 1-13 1.5 0 3 0 0.3-2-1-3.5 3.3-1.2 5.5 1.5 0.5-0.5 1-1 0.7 1.4 0.5 3z"/>
	</g>
	<g id="Layer">
		<path id="Layer" class="s15" d="m619.5 339.5q4.3-0.7 7 2.5-3.7 2.1-8 1.5-0.1-2.2 1-4z"/>
	</g>
	<g id="Layer">
		<path id="Layer" class="s16" d="m603.5 339.5q6-0.8 5 4.5-3 0.7-6 0.5-0.2-2.7 1-5z"/>
	</g>
	<g id="Layer">
		<path id="Layer" class="s17" d="m384.5 339.5q0 2.5 0 5-2.8 0.4-4-2 0.9-3.1 4-3z"/>
	</g>
	<g id="Layer">
		<path id="Layer" class="s18" d="m161.5 354.5q30.5-0.3 61 0.5 22.2 5.7 20.5 28.5-2.3 6.8-5.5 13-5.9 5.1-13 8-50.5 0-101 0-0.5 0-1 0-12.8-6.1-16.5-20-2.8-23.1 19.5-29.5 18-0.8 36-0.5z"/>
	</g>
	<g id="Layer">
		<path id="Layer" class="s19" d="m368.5 357.5q4.3 1 9 2-0.7 1.5-2 2.5-3.5 1-7 0-2.8-2.1-6-3.5 0-1.5 1.5-2 2.2 1 4.5 1z"/>
	</g>
	<g id="Layer">
		<path id="Layer" class="s20" d="m359.5 370.5q0.9 0.2 1.5 1 0.7 4 0.5 8-6.6 0.3-13-1.5-4.9-2.7-10-4.5 2.7-9.5 5-19 0.9-0.2 1.5-1 3.4 5.9 8 11 3.1 3.3 6.5 6z"/>
	</g>
	<g id="Layer">
		<path id="Layer" class="s21" d="m383.5 327.5q1 2.5 2 5-3.6 0.3-3 4 2 0 4 0-1 1.5-2 3-3.1-0.1-4 3 1.2 2.4 4 2 1.6 3.4 0.5 7-2.1 9.3-6 18-6.8 8.4-16.5 3-0.4 7.1 1 14-0.9 0.4-1 1.5 1.2 3.2 2 6.5 0 1.5 0 3-0.8 5.3-6 7-4 0.2-8-0.5-7.1-8-13-16.5-2.7-3-5-6.5 3.9-3.2 6-7.5 5.1 1.8 10 4.5 6.4 1.8 13 1.5 0.2-4-0.5-8-0.6-0.8-1.5-1 1.1-1.2 3-1.5-2-2.8 0.5-1.5 0.5-3.1 1.5-6-1.7-1.1-2-3 3.2 1.4 6 3.5 3.5 1 7 0 1.3-1 2-2.5-4.7-1-9-2 5.1 0.5 10-1 1-2.9 1.5-6 2.8-0.8 4.5-3-2.3-1.3-4.5 1-6.1-2.8-12.5-4 3 0 6 0 0-2 0-4-3 0-6 0 2.7-2.5 7-2.5-6.8-0.3-13-1.5 6.5 0 13 0 0.2-2.4-2-3.5-4.6-1.1-9 0.5 0.2-1.6-0.5-3-0.5 0.5-1 1-2.2-2.7-5.5-1.5 1.3 1.5 1 3.5-1.5 0-3 0-0.1 6.5-1 13-3.9-0.4-7.5 1-0.5-1.8 0.5-3.5-1.4-2.1-2-4.5 3.1 1.6 4 5 1.8 1.4 4 1-0.1-6.6 1.5-13 3-5.7 5.5-11.5 7.1 3.3 15 6 4.5 0.7 9 0.5z"/>
	</g>
	<g id="Layer">
		<path id="Layer" class="s22" d="m367.5 340.5q3 0 6 0 0 2 0 4-3 0-6 0 0-2 0-4z"/>
	</g>
	<g id="Layer">
		<path id="Layer" class="s23" d="m361.5 336.5q-0.1-2.3 2-3 4.4-1.6 9-0.5 2.2 1.1 2 3.5-6.5 0-13 0z"/>
	</g>
	<g id="Layer">
		<path id="Layer" class="s24" d="m625.5 379.5q-3 0-6 0-0.8-2.4-1-5 14.3-3.6 23.5-15-4.1 11.2-13.5 19.5-1.4 0.7-3 0.5z"/>
	</g>
	<g id="Layer">
		<path id="Layer" class="s25" d="m133.5 377.5q14-0.2 28 0.5 1.3 2 1 4.5-3.4 0.5-5.5-2-11.3 2.9-23.5 2 0-2.5 0-5z"/>
	</g>
	<g id="Layer">
		<path id="Layer" class="s26" d="m644.5 366.5q2.2 7.5 6.5 14 2.2 5.8 2.5 12-4.3-0.1-8-2 0.4-3.4-1-6-1.4-9.2 0-18z"/>
	</g>
	<g id="Layer">
		<path id="Layer" class="s12" d="m330.5 385.5q6.3 9.6 11 20 2 8 4 16 1.4 11.4 1 23 0.2 1.6-0.5 3-0.5-3.5-1-7-0.5 1.5-1 3-8.5-3.3-18.5-5.5-1.2-4.1-1.5-8.5-3 11.5-5.5 23-2.2 8.7-3 18 20.6-0.5 41 1 1.2 6.4 1 13-1.5 3.9-2 8-21.5 2.4-43 4-10.5 0.2-21-0.5-3.7-1.8-5.5-5.5-1-8 0-16 5.1-31.5 10-63 1.2-14.7 13.5-22.5 8.5-2.9 16.5-6.5 2.1 1.6 3 4 0.6-0.8 1.5-1z"/>
	</g>
	<g id="Layer">
		<path id="Layer" class="s27" d="m619.5 379.5q3 0 6 0 9 5.2 16.5 13 2.6-3.5 2.5-8 1.4 2.6 1 6-2.9 13.2-13 22.5-8.2 8-12.5-2.5-3.2-7.1-2.5-15 2.5-7.6 2-16z"/>
	</g>
	<g id="Layer">
		<path id="Layer" class="s28" d="m387.5 429.5q-1.1 1.6-3 2-3.5-19.9-14-37-0.2-1.1 0.5-2 9 2 16 8 6.8 13.1 8.5 28-4.3-0.5-8 1z"/>
	</g>
	<g id="Layer">
		<path id="Layer" class="s29" d="m364.5 394.5q12.9 17.9 16 40-3.6 8.7-8 17-0.4-17.6-7-34-1.2-9.9-1-20 0-1.5 0-3z"/>
	</g>
	<g id="Layer">
		<path id="Layer" class="s30" d="m645.5 390.5q3.7 1.9 8 2 1.5 10.7 1 22-13.2-2-10.5 11 1.5 1.3 3.5 1-2.6-9.6 7-8 0 3.5 0 7-12 1.2-9.5 13 4.9 8.2 14.5 6-3.8 2.6-9 2.5-1.8 0.7-2.5 2.5-1 14-1.5 28-15-3-30-6-5.9-4.3-11 1-8-7.5-16-15-3.2-5.2-9-7-3.7-1.5-8-1 2.6-1.4 6-1 0.7-13.6 3.5-27 3.2-13.7 15.5-20.5 9.9-3.2 20-5.5-0.7 7.9 2.5 15 4.3 10.5 12.5 2.5 10.1-9.3 13-22.5z"/>
	</g>
	<g id="Layer">
		<path id="Layer" class="s31" d="m658.5 393.5q23.4 1.7 30.5 24 5.1 22 12.5 43 3.7 15 7.5 30 3.3 15.9-12.5 18-10.8-1.8-20.5-7 1.5 28 2.5 56-11 0.7-22 2-6.2-1.5-13-1 0.2-33.8 3-67 10.2 3.4 21 5 2.9-6.7 4-14-12.9-1.5-25-5 0.5-14 1.5-28 0.7-1.8 2.5-2.5 5.2 0.1 9-2.5 9.5-6.2 4-16.5-2.9-1.4-6-2.5-1.5-3.4-1-7 8.8-2 7.5 7 1.7 2.3 4.5 2 1.6-11.8-10-13 0-10.5 0-21z"/>
	</g>
	<g id="Layer">
		<path id="Layer" class="s32" d="m337.5 387.5q5.9 8.5 13 16.5 4 0.7 8 0.5-2.7 1.2-6 1.5 6.4 7.1 12 14.5 6.9 16.8 4.5 35-1 2.7-3.5 4-7.7 0-12.5-6-1.3-16.8-3.5-33-2-12-7-23-2.5-5-5-10z"/>
	</g>
	<g id="Layer">
		<path id="Layer" class="s33" d="m342.5 397.5q5 11 7 23 0.1 11.7-2.5 0-0.6 0.8-1.5 1-2-8-4-16-0.5-4.3 1-8z"/>
	</g>
	<g id="Layer">
		<path id="Layer" class="s34" d="m363.5 386.5q3.5 4.1 7 8 10.5 17.1 14 37-2 1.5-4 3-3.1-22.1-16-40-0.8-3.3-2-6.5 0.1-1.1 1-1.5z"/>
	</g>
	<g id="Layer">
		<path id="Layer" class="s35" d="m364.5 397.5q-0.2 10.1 1 20 0.4 1.9-1 3-5.6-7.4-12-14.5 3.3-0.3 6-1.5 5.2-1.7 6-7z"/>
	</g>
	<g id="Layer">
		<path id="Layer" class="s36" d="m644.5 366.5q0.5 0 1 0 11.7 11 13 27 0 10.5 0 21 11.6 1.2 10 13-2.8 0.3-4.5-2 1.3-9-7.5-7-0.5 3.6 1 7 3.1 1.1 6 2.5 5.5 10.3-4 16.5-9.6 2.2-14.5-6-2.5-11.8 9.5-13 0-3.5 0-7-9.6-1.6-7 8-2 0.3-3.5-1-2.7-13 10.5-11 0.5-11.3-1-22-0.3-6.2-2.5-12-4.3-6.5-6.5-14z"/>
	</g>
	<g id="Layer">
		<path id="Layer" class="s37" d="m426.5 433.5q0.2-1.3-1-2-20 1-40 2-7 9.2-11.5 20-1.1 1.3-2.5 2-0.1-2.2 1-4 4.4-8.3 8-17 2-1.5 4-3 1.9-0.4 3-2 19.5-1.4 39 0 1.8 2.2 0 4z"/>
	</g>
	<g id="Layer">
		<path id="Layer" class="s38" d="m652.5 429.5q11.5-0.6 7 9.5-7.9 3.8-10-4.5 0.4-3.3 3-5z"/>
	</g>
	<g id="Layer">
		<path id="Layer" class="s39" d="m426.5 433.5q-1.1 3.7-3 7-1 0-2 0-0.2-0.9-1-1.5-4-0.7-8-0.5 0 1.5 0 3 3.3 0.3 6 2 4.6 3.4 2 9-6.3-3.2-13-5.5-3.1-1.2-6 0.5 4.5 4.2 9.5 8 1.9 6.1-3.5 9.5-7.7 4.2-16.5 5.5-5.4-0.8-5-6 5.4-3.1 6.5-9-9.9 2.6-19 7-1.9-0.1-2.5-2-0.7 1.9-0.5 4-1.8 0.3-3-1 1.7-1.7 2-4 0.2-2.5 2-4 1.4-0.7 2.5-2 4.5-10.8 11.5-20 20-1 40-2 1.2 0.7 1 2z"/>
	</g>
	<g id="Layer">
		<path id="Layer" class="s40" d="m421.5 440.5q-1.5 0-3 0 0 1.5 0 3-2.7-1.7-6-2 0-1.5 0-3 4-0.2 8 0.5 0.8 0.6 1 1.5z"/>
	</g>
	<g id="Layer">
		<path id="Layer" class="s41" d="m349.5 420.5q2.2 16.2 3.5 33 4.8 6 12.5 6-0.5 2-1 4-1.5 0-3 0-3.7-0.4-7-2-8-6.6-8-17 0.4-11.6-1-23 0.9-0.2 1.5-1 2.6 11.7 2.5 0z"/>
	</g>
	<g id="Layer">
		<path id="Layer" class="s42" d="m365.5 417.5q6.6 16.4 7 34-1.1 1.8-1 4-1.8 1.5-2 4-3.1 1.2-5 4 0.5-2 1-4 2.5-1.3 3.5-4 2.4-18.2-4.5-35 1.4-1.1 1-3z"/>
	</g>
	<g id="Layer">
		<path id="Layer" class="s43" d="m346.5 444.5q0 10.4 8 17-2.1 0.2-4-0.5-2.2-6.2-8.5-7.5-8.6 0.6-16.5-4-2.3 0.6-5 0.5-0.8 1.5-2 2.5 2.5-11.5 5.5-23 0.3 4.4 1.5 8.5 10 2.2 18.5 5.5 0.5-1.5 1-3 0.5 3.5 1 7 0.7-1.4 0.5-3z"/>
	</g>
	<g id="Layer">
		<path id="Layer" class="s44" d="m264.5 486.5q-8.7-1.7-17-5-11-9.8-24-16.5-50.4-6.9-41 43.5-5-0.7-9 2-0.8-4.2-1-8.5 0.9-11 3-21-1-0.5-2-1 1.5-8.2 5.5-15.5 16-19.2 40-12 9.7-4.5 19.5 1.5 5.4 6.7 13 10.5 4 9 10 17 0.9-0.3 1.5-1 1.9 3.1 5.5 3.5-2.3 0.9-4 2.5z"/>
	</g>
	<g id="Layer">
		<path id="Layer" class="s45" d="m559.5 449.5q6.5 0 13 0 4.3-0.5 8 1-19.2 4-39 2.5 7.1-0.3 14-1.5 2.2-1 4-2z"/>
	</g>
	<g id="Layer">
		<path id="Layer" class="s46" d="m559.5 449.5q-1.8 1-4 2-6.9 1.2-14 1.5 19.8 1.5 39-2.5 5.8 1.8 9 7-4.2-2.4-8-5.5-1.5-1-3 0 12.3 11.6 25 22.5-0.2 0.9-1 1.5-3.8 0.3-7.5 0.5-7.5 0-14.5-2 0.6 6.1 6 9-0.7 3.3-3 6-3.2-0.5-7 0-0.2-3.3-2-6 0.7-6.1-2-11.5-6 0.3-9-4.5-4.8-1.8-9 1-7-6.7-14.5-13-1-2 0-4 9.6-1.7 19.5-2z"/>
	</g>
	<g id="Layer">
		<path id="Layer" class="s47" d="m589.5 457.5q8 7.5 16 15 0 2-2 2-12.7-10.9-25-22.5 1.5-1 3 0 3.8 3.1 8 5.5z"/>
	</g>
	<g id="Layer">
		<path id="Layer" class="s48" d="m354.5 461.5q3.3 1.6 7 2 0.5 1 1 2-2.3 2.6-3 6-1.5 0-3 0-20.4-1.5-41-1 0.8-9.3 3-18 1.2-1 2-2.5 2.7 0.1 5-0.5 7.9 4.6 16.5 4 6.3 1.3 8.5 7.5 1.9 0.7 4 0.5z"/>
	</g>
	<g id="Layer">
		<path id="Layer" class="s49" d="m264.5 486.5q9.1 3.5 17 9.5 32.3 30.8 13.5 71.5-6.1 12.3-13 24-7.8 8.7-16.5 16.5-3.9 3.2-9 4-1.1 1-1 2.5-6.3-13.1-20-8 1.6-1.3 0-2.5-50.1-24.1-65.5-77.5-1.9-9 3.5-16 4-2.7 9-2-9.4-50.4 41-43.5 13 6.7 24 16.5 8.3 3.3 17 5z"/>
	</g>
	<g id="Layer">
		<path id="Layer" class="s50" d="m369.5 459.5q-0.3 2.3-2 4 1.2 1.3 3 1-0.2-2.1 0.5-4 0.6 1.9 2.5 2-4.7 8.2-14 9 0.7-3.4 3-6-0.5-1-1-2 1.5 0 3 0 1.9-2.8 5-4z"/>
	</g>
	<g id="Layer">
		<path id="Layer" class="s51" d="m419.5 470.5q-3.8 19.8-24 26 0.4-2.9-1-5 0.5-4.8-1-9 3.7-3.6 9-5 3.5-4.8 6.5-10 3 6.1 9.5 4.5 0.8-0.6 1-1.5z"/>
	</g>
	<g id="Layer">
		<path id="Layer" class="s52" d="m421.5 440.5q1 0 2 0 1.9 2.7 4.5 5 1.4 2.3 1.5 5-5 10-10 20-0.2 0.9-1 1.5-6.5 1.6-9.5-4.5-3 5.2-6.5 10-5.3 1.4-9 5-8.1 2.1-16.5 3-3.4-0.1-6.5-1-0.5 0-1 0-6 0-12 0 0.2-6.6-1-13 1.5 0 3 0 9.3-0.8 14-9 9.1-4.4 19-7-1.1 5.9-6.5 9-0.4 5.2 5 6 8.8-1.3 16.5-5.5 5.4-3.4 3.5-9.5-5-3.8-9.5-8 2.9-1.7 6-0.5 6.7 2.3 13 5.5 2.6-5.6-2-9 0-1.5 0-3 1.5 0 3 0z"/>
	</g>
	<g id="Layer">
		<path id="Layer" class="s53" d="m673.5 446.5q6.6 17.9 10 37-4.9 0.4-9.5-1-0.8-18-0.5-36z"/>
	</g>
	<g id="Layer">
		<path id="Layer" class="s54" d="m574.5 483.5q-3.6 7.7 5 7-0.2 5.7-2.5 11-1 1.1-2.5 1-2.4-0.7-3.5-3-2.3-5.4-4-11-11.2-6.9-12.5-20 4.2-2.8 9-1 3 4.8 9 4.5 2.7 5.4 2 11.5z"/>
	</g>
	<g id="Layer">
		<path id="Layer" class="s55" d="m616.5 471.5q-6.8 1.4-12 6 2.8 1.4 6 1 0.3 2.5-1 4.5 0.8 0.3 1.5 0.5 3.7-1.9 7.5 0 7.9-4.8 14 2-3.9-1.3-8-2-11.2 2.8-22.5 5-8.3-0.8-15.5-5-5.4-2.9-6-9 7 2 14.5 2 3.8-0.3 7.5-0.5 0.8-0.6 1-1.5 2 0 2-2 5.1-5.3 11-1z"/>
	</g>
	<g id="Layer">
		<path id="Layer" class="s56" d="m616.5 471.5q15 3 30 6 12.1 3.5 25 5-1.1 7.3-4 14-10.8-1.6-21-5-6.8-3.4-14-6-6.1-6.8-14-2-3.8-1.9-7.5 0-0.8-0.3-1.5-0.5 1.3-2 1-4.5-3.2 0.4-6-1 5.2-4.6 12-6z"/>
	</g>
	<g id="Layer">
		<path id="Layer" class="s57" d="m855.5 546.5q-1.6 3.9-5 6.5-5.9 3.2-12 5.5 1 0.5 2 1 10.8-2.7 22-3 5.4-0.7 9 3 1.6 4.4 0.5 9-8.3 23.2-24 42-2.2 2.6-0.5 5 1.6 3.4 0.5 7-10.2 9-21.5 16-10.5 4.3-20 10-17.4 7-36 9 0.4 1.9-1 3 0.1-1.5-1-2.5-4.2-2.3-9-2.5-38.3-31.6-47.5-81-5.4-35.1 16-63 20.1-24.4 51.5-22 1.4 1 3.5 1 12.2-1.9 24.5-2.5 36.6-7.6 51.5 27.5 1.8 16-3.5 31z"/>
	</g>
	<g id="Layer">
		<path id="Layer" class="s58" d="m574.5 483.5q1.8 2.7 2 6 3.8-0.5 7 0 2.3-2.7 3-6 7.2 4.2 15.5 5 11.3-2.2 22.5-5 4.1 0.7 8 2 7.2 2.6 14 6-2.8 33.2-3 67 6.8-0.5 13 1-15.5 0-31 0-23.7-2.2-47-7 3.8-20.2 8-40.5-0.1-1.7-1-3-6.1-2.5-11-6.5 1.5 0.1 2.5-1 2.3-5.3 2.5-11-8.6 0.7-5-7z"/>
	</g>
	<g id="Layer">
		<path id="Layer" class="s3" d="m456.5 489.5q16.9-1.5 24 13.5-9 0.7-18 0.5 0 1.5 0 3 17-0.3 34 0.5 3.2 3.1 1 7-17 0.3-34 1.5 8.4 1.5 17 1-1.9 12.2-14 15.5-19.7 2.8-25.5-16.5-2.4-19.3 15.5-26z"/>
	</g>
	<g id="Layer">
		<path id="Layer" class="s59" d="m369.5 484.5q0.5 0 1 0 0 5.5 0 11 0 6.5 0 13-1-5.5-2-11-0.4-6.6 1-13z"/>
	</g>
	<g id="Layer">
		<path id="Layer" class="s60" d="m393.5 482.5q1.5 4.2 1 9 0 4 0 8-6.3 1.9-12-1-2.7 1.5-5-1-2.8 2.5-6 1 0.4-1.9-1-3 0-5.5 0-11 3.1 0.9 6.5 1 8.4-0.9 16.5-3z"/>
	</g>
	<g id="Layer">
		<path id="Layer" class="s61" d="m357.5 484.5q6 0 12 0-1.4 6.4-1 13 0.5 6.3-1 12 0.2-7-0.5-14-0.3 6.2-2.5 12-4.2 0.9-8.5 1-22.3-1.1-44.5-0.5-0.3-5.5 1-11.5 21.5-1.6 43-4 0.5-4.1 2-8z"/>
	</g>
	<g id="Layer">
		<path id="Layer" class="s62" d="m855.5 546.5q5.3-15 3.5-31-14.9-35.1-51.5-27.5-12.3 0.6-24.5 2.5-2.1 0-3.5-1 2.5 0.2 5-0.5 22.7-17.9 50-8 41.4 18.4 37.5 63.5-8.7-2.6-16.5 2z"/>
	</g>
	<g id="Layer">
		<path id="Layer" class="s63" d="m394.5 491.5q1.4 2.1 1 5 0.5 8.4-1 16.5-12-0.2-23-2.5 0-6 0-12 3.2 1.5 6-1 2.3 2.5 5 1 5.7 2.9 12 1 0-4 0-8z"/>
	</g>
	<g id="Layer">
		<path id="Layer" class="s64" d="m370.5 495.5q1.4 1.1 1 3 0 6 0 12-0.5 3.9 1.5 7 10.4-0.1 21.5 0 1.5 12.8-11 8.5-2.3-2.2-2.5-5.5-1.3 4 1.5 7 5.9 1.5 12 1 0 17.5 0 35-2.6 0.2-5 1-6 1.2-12 0.5-6.9-3.6-6.5-11.5-0.7-13-0.5-26 0-9.5 0-19 0-6.5 0-13z"/>
	</g>
	<g id="Layer">
		<path id="Layer" class="s65" d="m366.5 535.5q1.2 14.4-8 25-3.6 2-7 4-21.5 0-43 0 1-22.6 3.5-45 14.6-2.1 29.5-2 0.7 4.3-2 7.5-8 1-16 0-1.1-2.1-1.5-4.5-1.3 3.8 1.5 6.5 8.5 1 17 0 3.9-3.3 3-8.5 11.7 0.9 22.5-2 0.7 9.5 0.5 19z"/>
	</g>
	<g id="Layer">
		<path id="Layer" class="s66" d="m368.5 497.5q1 5.5 2 11 0 9.5 0 19-1.2 4.7-1.5 10-1.1-0.8-1.5-2 0-13 0-26 1.5-5.7 1-12z"/>
	</g>
	<g id="Layer">
		<path id="Layer" class="s67" d="m913.5 542.5q29-0.5 58 1-0.3 0.9-1 1.5-28 1-56 0-1.1-1-1-2.5z"/>
	</g>
	<g id="Layer">
		<path id="Layer" class="s68" d="m743.5 532.5q0.9 0.6 1 2-3.7 21.9-0.5 44 5.4 14.9 17 26 1.2 4.1-3 5-4.5-0.6-7.5-4-18.4-22.8-13.5-52 1.9-11 6.5-21z"/>
	</g>
	<g id="Layer">
		<path id="Layer" class="s69" d="m141.5 557.5q15.8 11.3 28 27 4.6 1 9 2.5-2.7 0.3-4 2.5 13.3 15.7 15 36 2.5 0 5 0-51.8 13.1-49 67-30-2.9-57-16.5-21.7-13.2-31.5-36.5-2.8-16.1 11.5-23.5-19.2-51.1 33-65 21.2-3.3 40 6.5z"/>
	</g>
	<g id="Layer">
		<path id="Layer" class="s70" d="m799.5 554.5q3 0 6 0 0.2 2.1-0.5 4-16.6 13.6-29 31-4.3 7.7-7 16 5.1-31.8 30.5-51z"/>
	</g>
	<g id="Layer">
		<path id="Layer" class="s71" d="m578.5 554.5q-0.1 15.5 1.5 31 10.3 85.8 17.5 172 0.8 4.7-2.5 8-0.3-3.3-2-6-1.5 3.6-2-1-0.1 5-3.5 1.5-6-4-10-10 0-3.5 0-7-3.8-5.2-2-10-1-2-2-4 0.2-1.2 1-2-1.2-5.6-1.5-11.5-1.3 2.1-1.5-0.5 1-1 2-2-1.5-4.5-6-8.5 0.3-0.5 0.5-1 1.4 1.8 3.5 2.5 1.3 1.5 1 3.5 1.8 0.3 3-1-3-3-4-7-5.6-0.1-4-5-0.6-4.7-3-8.5 1-0.5 2-1-4.2-0.7-3.5-4.5 0.5 1 1 2 0.3-1.8 0.5-3.5-2.4-2.6-2-7.5 1-0.5 2-1-2.2-2.6-2.5-6-0.5 4-1 8-0.4-5.6-1.5-11-3.9-0.2-5.5-5-5.5 6.5 1.5 11-1.1 0.6-3 0.5 1.2 5.2 5.5 5.5 0.5-4.5 1-9 1.2 6.1-0.5 12-7.2-2.4-1.5 3 2.2 14.2-4 2-0.5 0.5-1 1-1-2-2-4-0.5 0.5-1 1-2.3-3.7-6-6-1-2.4 1.5-3.5-1.4-0.7-3-0.5 0.2 1.6-0.5 3-2-4.1-5.5-7-1.2-1.4-0.5-3 1.7 2.6 4.5 1.5-5.1-3.6-0.5-7.5 3.1-0.2 6.5 1.5 1.7 1.5-1 2 1.3 1.3 2.5 2.5 0.4-3.9 0.5-7 1 4.5 2 9 0.2-5.9 1-11.5-4.7-1.3-3.5-5.5-1.7-2.8-4-2-1-2-2-4-0.5 1-1 2-2.2-9.1-8.5-15.5 0.5-0.5 1-1-2.6-0.1-5-2.5 1.8-6.5 6-2.5 15.5 15.3 34 34 1 1 2 0-18.7-20.3-38-40 3.7-2.7-1-4.5-0.6 1.1-0.5 3-2.7-3.8-6.5-6.5 1.5-1.8 3-1.5-1.8-1.6-2.5-4-1 1.8-1.5 0 0.8-1 2-1.5-4.1-1-1.5-3.5 2.9 5.5 5 0 2.5 4.8 7.5 7 0.5-0.5 1-1-16.2-16.1-30-32 0.7-1.5 2-2.5-0.9-1.1-1.5-2.5-1.7 5.7-4.5 0.5 1.4-0.9 2.5 0.5 1-1.5 0-3-1.4 1.7-2.5-0.5 2-0.5 4-1-2.9-1.1-5.5 0.5-2.7-1.9 0.5-3.5-4.5-0.5-9 0.5 10.5-3.8 22-4.5 34-4 62.5 14.5 0.3-9.3 1.5-18z"/>
	</g>
	<g id="Layer">
		<path id="Layer" class="s72" d="m914.5 557.5q24.5 0 49 0 0 1.5 0 3-24.5 0-49 0 0-1.5 0-3z"/>
	</g>
	<g id="Layer">
		<path id="Layer" class="s73" d="m370.5 527.5q-0.2 13 0.5 26-0.4 7.9 6.5 11.5 6 0.7 12-0.5 0 9.6-1.5 19-8.3 56-16.5 112-3.9 18.7-6 38-6.5 38.7-11 78 0 0.5 0 1-1.4 4.8-1 10-4 0-8 0-11.5 0-23 0-1.5 0-3 0 12.6-63.6 26.5-127 11.9-63.4 12.5-128 0-3.5 0-7 9.2-10.6 8-25 0.5 0 1 0 0.4 1.2 1.5 2 0.3-5.3 1.5-10z"/>
	</g>
	<g id="Layer">
		<path id="Layer" class="s74" d="m358.5 560.5q0 3.5 0 7-1.2 5.2-1.5 11-0.5-3-1-6-0.5 1.5-1 3-0.5-3-1-6-1 2-2 0-0.7 1.9 1.5 2.5-2.3 2-3 5 1.7 1.4-0.5 2.5-0.5-0.5-1-1-1.8 3.2-5 5-0.9 5.7 1.5 11 1.5 0 3 0-0.2 2.1 0.5 4 0.3-3.6 1.5-7 1.2 4.9 1.5 10 0.5-7.5 1-15 1.5 5.6 1.5 11.5-1.1 18.1-3 36 1.1 3.2 2 6.5-1.2 9.5-3 19-3.4-1.4-3.5 3-1-4.9-4.5-2.5 0.7 0.6 1 1.5-1 2.9-1.5 6-0.5-0.5-1-1-2.7 4.4-5 9-1.1 5.6-1.5 10.5-5.1 7-7.5 15.5-4.2 3.6-9.5 5.5-1.1 2.1-1.5 4.5-0.5-0.5-1-1 0.2 2.9-0.5 5.5 1 2.5 2 5-0.3 7.3-1.5 14.5-1.4-5.5-2 1-3.9-1.1-5-5-0.9 3.3-3.5 0.5 1.3-12.3 2-26.5-0.3-7.5-0.5-15-2.5-2.6-2.5-6.5 0.9-7.2 1-14.5 0.4-9.5 1-19 0.5 0 1 0 1.2-4.7 1.5-10 0.5 3 1 6 1.4-6.4 0.5-12.5 1.1-32.7 2.5-65.5 1-1 2-2 15 1.3 30 1 4.1-0.9 7.5-3 3.4-2 7-4z"/>
	</g>
	<g id="Layer">
		<path id="Layer" class="s75" d="m678.5 557.5q0.2 67.8-8 135 4.4 58.5 7 117-1.3 0.9-3 1-0.5 0-1 0-2.2-0.1-4 1-7 0-14 0-5.2-24.3-10-49-8.5-45.4-16.5-91-0.3 23.3-1.5 46 0.3-25.5-0.5-51-6.4-52.8-6.5-106 2.9 0.4 5-1 15.5 0 31 0 11-1.3 22-2z"/>
	</g>
	<g id="Layer">
		<path id="Layer" class="s76" d="m597.5 757.5q3.6 26.7 5 54-123.9 1.5-248 1 0-0.5 0-1 40.5 0 81 0 29.5 0 59 0 51 0.3 102-0.5 0.7-0.6 1-1.5-2.2-1.1-3.5-3-3.3 2.9-7 2-6.1-2.5-11.5-6.5 0.5-0.5 1-1-8.2-2.6-14.5-8.5-1.9-1.8-2-4 2.1 1.6 4.5 0.5-17.5-15.5-33-33 0.7-1.5 0.5-3.5 2.3 2 3.5-1-2.4-2.7-6-4 0.3-0.9 1-1.5-2.9-3.4-4.5-7.5-1-2-2 0-0.9-1.4 0.5-2.5-2.9-1.2-4.5 1.5-0.5-1-1-2-9.8 1.8-18.5 6.5-16.3 12.5-29 28.5-7.4 7.4-14 16-7.7 3.1-5.5-5 2.6-4.7 6-9 10.1-9.6 19.5-20 15.5-18 36-29.5-1.7-1.2-3.5-2.5-2.6 0.2-0.5 1.5-1.5 1-3 0 1.7-1.4-0.5-2.5-3.1 1.6-6.5 0.5-1.8-3-5-4.5-8.2-8.5-16-17.5 0.5-0.5 1-1-1.6-1.7-3.5-1.5-0.5-2-1-4-0.5 0.5-1 1-5.9-3.4-7-9-8.6-7.6-15-17-0.7-1.9 1.5-2.5-1.6-3.3-4.5-1.5-1.2-1.7-2.5-3.5 0.3-0.8 0.5-1.5 0.6 2.2 2.5 1.5-6.8-6.3-12.5-13.5-0.7-1.9 1.5-2.5-1.6-1.1-2-3 0.9-6.1 2-12-0.8-1.1-1-2.5 0.5-1.9 2-2.5-0.2-1.6-1.5-2.5-1 2-2 0-1.7 1.6-1.5 3.5-1.2 1-2-0.5 3-6 6-12-0.2-0.9-1-1 18.2-34.7 55-48 4.5-1 9-0.5-3.2 1.6-0.5 3.5 2.6-1.6 5.5-0.5-2 0.5-4 1 1.1 2.2 2.5 0.5 1 1.5 0 3-1.1-1.4-2.5-0.5 2.8 5.2 4.5-0.5 0.6 1.4 1.5 2.5-1.3 1-2 2.5 13.8 15.9 30 32-0.5 0.5-1 1-5-2.2-7.5-7-2.1 5.5-5 0-2.6 2.5 1.5 3.5-1.2 0.5-2 1.5 0.5 1.8 1.5 0 0.7 2.4 2.5 4-1.5-0.3-3 1.5 3.8 2.7 6.5 6.5-0.1-1.9 0.5-3 4.7 1.8 1 4.5 19.3 19.7 38 40-1 1-2 0-18.5-18.7-34-34-4.2-4-6 2.5 2.4 2.4 5 2.5-0.5 0.5-1 1 6.3 6.4 8.5 15.5 0.5-1 1-2 1 2 2 4 2.3-0.8 4 2-1.2 4.2 3.5 5.5-0.8 5.6-1 11.5-1-4.5-2-9-0.1 3.1-0.5 7-1.3-1.3-2.5-2.5 2.7-0.5 1-2-3.4-1.7-6.5-1.5-4.6 3.9 0.5 7.5-2.8 1.1-4.5-1.5-0.7 1.6 0.5 3 3.5 2.9 5.5 7 0.7-1.4 0.5-3 1.6-0.2 3 0.5-2.5 1.1-1.5 3.5 3.7 2.3 6 6 0.5-0.5 1-1 1 2 2 4 0.5-0.5 1-1 6.2 12.2 4-2-5.7-5.4 1.5-3 1.7-5.9 0.5-12-0.5 4.5-1 9-4.3-0.3-5.5-5.5 1.9 0.1 3-0.5-7-4.5-1.5-11 1.6 4.8 5.5 5 1.1 5.4 1.5 11 0.5-4 1-8 0.3 3.4 2.5 6-1 0.5-2 1-0.4 4.9 2 7.5-0.3 1.8-0.5 3.5-0.5-1-1-2-0.7 3.8 3.5 4.5-1 0.5-2 1 2.4 3.8 3 8.5-1.6 4.9 4 5 1 4 4 7-1.2 1.3-3 1 0.3-2-1-3.5-2.1-0.7-3.5-2.5-0.3 0.5-0.5 1 4.5 4 6 8.5-1 1-2 2 0.2 2.6 1.5 0.5 0.3 5.9 1.5 11.5-0.8 0.8-1 2 1 2 2 4-1.8 4.8 2 10 0 3.5 0 7 4 6 10 10 3.4 3.5 3.5-1.5 0.5 4.6 2 1 1.7 2.7 2 6 3.3-3.3 2.5-8z"/>
	</g>
	<g id="Layer">
		<path id="Layer" class="s77" d="m913.5 573.5q23-0.3 46 0.5 0.7 0.6 1 1.5-23.5 1.5-47 1 0-1.5 0-3z"/>
	</g>
	<g id="Layer">
		<path id="Layer" class="s78" d="m578.5 552.5q23.3 4.8 47 7-2.1 1.4-5 1 0.1 53.2 6.5 106 0.8 25.5 0.5 51-0.6 40-3.5 80 0 7-2.5 13-6.3-0.5-12 1-1 0-2 0-2.5 0-5 0-1.4-27.3-5-54-7.2-86.2-17.5-172-1.6-15.5-1.5-31 0-1 0-2z"/>
	</g>
	<g id="Layer">
		<path id="Layer" class="s79" d="m970.5 640.5q-22.7 1.5-46 1-0.4 9.9-5 18.5 13.6 8 9.5 23.5-9 20-28.5 30.5-7.2 3-14 6.5-18.7-13-40-4.5-24.8 12-43 32.5-0.5-0.5-1-1 15.3-20.6 34.5-38 5.6-8 7.5-17.5 0-6.5-6-9-4.8-1.8-10-1.5-0.2-0.9-1-1.5 2.9-2.6 3.5-6.5 2.2-11.4 1-23-2-6.1-6.5-10.5 0.8-0.6 1-1.5 11.3-7 21.5-16 1.1-3.6-0.5-7 10.2-6.9 22-11.5 29.4-6.7 49.5 15.5 6 8.1 6.5 18 23 0 46 0 0.4 1.9-1 3z"/>
	</g>
	<g id="Layer">
		<path id="Layer" class="s80" d="m255.5 614.5q11 27.5 16 57-1.1 2.7-3 5-16.8-24.3-40-43 1.2-10.7 1.5-22 2.6-2.9 5.5-5 13.7-5.1 20 8z"/>
	</g>
	<g id="Layer">
		<path id="Layer" class="s81" d="m308.5 564.5q21.5 0 43 0-3.4 2.1-7.5 3-15 0.3-30-1-1 1-2 2-1.4 32.8-2.5 65.5 0.9 6.1-0.5 12.5-0.5-3-1-6-0.3 5.3-1.5 10 0.3-43 2-86z"/>
	</g>
	<g id="Layer">
		<path id="Layer" class="s82" d="m437.5 610.5q0.8 0.1 1 1-3 6-6 12 0.8 1.5 2 0.5-0.2-1.9 1.5-3.5 1 2 2 0 1.3 0.9 1.5 2.5-1.5 0.6-2 2.5 0.2 1.4 1 2.5-1.1 5.9-2 12 0.4 1.9 2 3-2.2 0.6-1.5 2.5 5.7 7.2 12.5 13.5-1.9 0.7-2.5-1.5-0.3 0.8-0.5 1.5 1.3 1.8 2.5 3.5 2.9-1.8 4.5 1.5-2.2 0.6-1.5 2.5 6.4 9.4 15 17 1.1 5.6 7 9 0.5-0.5 1-1 0.5 2 1 4 1.9-0.2 3.5 1.5-0.5 0.5-1 1 7.8 9 16 17.5 3.2 1.5 5 4.5 3.4 1.1 6.5-0.5 2.2 1.1 0.5 2.5 1.5 1 3 0-2.1-1.3 0.5-1.5 1.8 1.3 3.5 2.5-20.5 11.5-36 29.5 1.6-3.8 5-6.5-6.5-2.2-7 4.5-2.2-0.4-4 1 2.1 1.8-0.5 2-4.3-1-5.5 4-3.4 1.4-6 4-2.2-2-4-4.5-1.9-1-3.5 0.5-5.6-4.1-8.5-10.5 0.5-0.5 1-1-3-0.9-4.5-3.5-1.2 3.6-2.5-0.5 1.5-1.6 0.5-3.5-0.7 3.6-2.5 0.5 1.4-1.1 0.5-2.5-7.4-6.5-11.5-15.5 1.5-1.6 0.5-3.5-2.9 0.7-4-3-0.8 6.3-2.5 12-1.1-30.5-0.5-61 3.4-30 19.5-55z"/>
	</g>
	<g id="Layer">
		<path id="Layer" class="s83" d="m194.5 625.5q18.3-1.1 34 8 23.2 18.7 40 43-12 19.5-6.5 42 6.1 21.3 18 40 2.3 6.3 4.5 12.5-0.5 1.3-1 2.5-2.1-1.7-4.5-3-7.4-21.5-23.5-37.5-8.7-3.9-15.5 2.5-7.3 16.8-5 35 3.6 16.3 9 32 0.7 4.5 0.5 9-6 0-12 0-4.2-17.2-2.5-35 1.3-2.5 2.5-5-19.7-11.1-40-21.5-12.7-7.9-24-17.5-16.9-16.8-23-40-2.8-53.9 49-67z"/>
	</g>
	<g id="Layer">
		<path id="Layer" class="s84" d="m970.5 640.5q-36 0.5-72-1 18-0.5 36-1 18.5 0 36 2z"/>
	</g>
	<g id="Layer">
		<path id="Layer" class="s85" d="m826.5 638.5q-0.2 0.9-1 1.5 4.5 4.4 6.5 10.5 1.2 11.6-1 23-0.6 3.9-3.5 6.5 0.8 0.6 1 1.5-19.3 1.9-35 13 1.4-24.9 15-45.5-0.9-0.7-2-0.5 9.5-5.7 20-10z"/>
	</g>
	<g id="Layer">
		<path id="Layer" class="s86" d="m305.5 650.5q-0.6 9.5-1 19-2 12-4 24-2.4-8.4-4.5-17-1.1-11.1 0.5-22 3.9-3.1 9-4z"/>
	</g>
	<g id="Layer">
		<path id="Layer" class="s87" d="m358.5 567.5q-0.6 64.6-12.5 128-13.9 63.4-26.5 127-1.2 2.2-2 5-6.9 1.5-14 1-10.5-1.2-21-1-1.6-1.4-4-1 0.7-4.5 1-9 1.4-2.6 1-6 9.6-57.5 20-115 0-1.5 0-3 2-12 4-24-0.1 7.3-1 14.5 0 3.9 2.5 6.5 0.3 7.5 0.5 15-0.7 14.2-2 26.5 2.6 2.8 3.5-0.5 1.1 3.9 5 5 0.6-6.5 2-1 1.2-7.2 1.5-14.5-1-2.5-2-5 0.7-2.6 0.5-5.5 0.5 0.5 1 1 0.4-2.4 1.5-4.5 5.3-1.9 9.5-5.5 2.4-8.5 7.5-15.5 0.4-4.9 1.5-10.5 2.3-4.6 5-9 0.5 0.5 1 1 0.5-3.1 1.5-6-0.3-0.9-1-1.5 3.5-2.4 4.5 2.5 0.1-4.4 3.5-3 1.8-9.5 3-19-0.9-3.3-2-6.5 1.9-17.9 3-36 0-5.9-1.5-11.5-0.5 7.5-1 15-0.3-5.1-1.5-10-1.2 3.4-1.5 7-0.7-1.9-0.5-4-1.5 0-3 0-2.4-5.3-1.5-11 3.2-1.8 5-5 0.5 0.5 1 1 2.2-1.1 0.5-2.5 0.7-3 3-5-2.2-0.6-1.5-2.5 1 2 2 0 0.5 3 1 6 0.5-1.5 1-3 0.5 3 1 6 0.3-5.8 1.5-11z"/>
	</g>
	<g id="Layer">
		<path id="Layer" class="s88" d="m806.5 648.5q1.1-0.2 2 0.5-13.6 20.6-15 45.5-26.9 19.1-42.5 48 1.3-16.6 5-33 6-24.7 13.5-49 1.4-1.1 1-3 18.6-2 36-9z"/>
	</g>
	<g id="Layer">
		<path id="Layer" class="s89" d="m296.5 654.5q-1.6 10.9-0.5 22 2.1 8.6 4.5 17 0 1.5 0 3-6.8-5.2-8.5-14-1.5-12.7-2.5-25 2.9-2.7 7-3z"/>
	</g>
	<g id="Layer">
		<path id="Layer" class="s90" d="m193.5 678.5q33 10.2 49.5 41 0.9 5.4-4.5 3.5-12.4-18.9-30-33-7.6-3.2-14.5-7.5-0.7-1.9-0.5-4z"/>
	</g>
	<g id="Layer">
		<path id="Layer" class="s91" d="m371.5 695.5q-0.2 2.1 0.5 4 47.5-8.6 44 40 1.9-6.4 2.5-13 1.7-5.7 2.5-12 1.1 3.7 4 3 1 1.9-0.5 3.5 4.1 9 11.5 15.5 0.9 1.4-0.5 2.5 1.8 3.1 2.5-0.5 1 1.9-0.5 3.5 1.3 4.1 2.5 0.5 1.5 2.6 4.5 3.5-0.5 0.5-1 1 2.9 6.4 8.5 10.5 1.6-1.5 3.5-0.5 1.8 2.5 4 4.5 2.6-2.6 6-4 1.2-5 5.5-4 2.6-0.2 0.5-2 1.8-1.4 4-1 0.5-6.7 7-4.5-3.4 2.7-5 6.5-9.4 10.4-19.5 20-3.4 4.3-6 9-2.2 8.1 5.5 5 6.6-8.6 14-16 2.4-1.7 4.5-4 0.8 0.8 1.5 1.5-5 3-8 8 0.8 0.8 1.5 1.5 7.2-8.2 7.5 2-3.2 6.7-0.5 14 0.5-1.5 1-3 0.7 2.5 0.5 5 8.7 2.1 17 5.5-1.5 0.5-3 1 4.8 2.3 9 5.5-1.3 1.1-3 1.5 7.5 0.5 15 1-10.3 0.3-20 1.5-29.5 0-59 0 15.2-1.2 31-1.5-16-0.5-32-1 1-1 2-2-6.7-4-13-8.5-9.7-10.4-20-20.5 0.5-1.5 1-3-5.9-5-8.5-12.5-2.8 2-1.5-0.5-1.5-0.5-3-1 0.5-0.5 1-1-1.8-0.7-2.5-2.5-0.5 0.5-1 1-0.5-2-1-4-1.5 1.7-2-1-2.8 2-1.5-0.5-2.1-2.5-4.5-1.5-0.5-2-1-4-0.5 0.5-1 1-3.4-6.7-8-14-1 2-2 0-2.9 6.1-2.5-1 2.1-19.3 6-38z"/>
	</g>
	<g id="Layer">
		<path id="Layer" class="s92" d="m759.5 655.5q4.8 0.2 9 2.5 1.1 1 1 2.5-7.5 24.3-13.5 49-3.7 16.4-5 33 15.6-28.9 42.5-48 15.7-11.1 35-13 5.2-0.3 10 1.5 6 2.5 6 9-1.9 9.5-7.5 17.5-19.2 17.4-34.5 38 0.5 0.5 1 1 18.2-20.5 43-32.5 21.3-8.5 40 4.5 28.4 24.2 13.5 59-8.4 19.8-26.5 31-69.9 1.5-140 1 0.5-6.3-1-12 0-17.5 0-35 5.8-56.4 27-109z"/>
	</g>
	<g id="Layer">
		<path id="Layer" class="s93" d="m645.5 762.5q-4.7 24.2-15 47-4.2 0.8-7.5 3-0.6-0.8-1.5-1 0-0.5 0-1 2.5-6 2.5-13 2.9-40 3.5-80 1.2-22.7 1.5-46 8 45.6 16.5 91z"/>
	</g>
	<g id="Layer">
		<path id="Layer" class="s94" d="m289.5 657.5q1 12.3 2.5 25 1.7 8.8 8.5 14-10.4 57.5-20 115-18 0-36 0 0.2-4.5-0.5-9-5.4-15.7-9-32-2.3-18.2 5-35 6.8-6.4 15.5-2.5 16.1 16 23.5 37.5 2.4 1.3 4.5 3 0.5-1.3 1-2.5-2.2-6.2-4.5-12.5-11.9-18.7-18-40-5.5-22.5 6.5-42 1.9-2.3 3-5 7.7-8.7 18-14z"/>
	</g>
	<g id="Layer">
		<path id="Layer" class="s82" d="m494.5 811.5q9.7-1.2 20-1.5-7.5-0.5-15-1 1.7-0.4 3-1.5-4.2-3.2-9-5.5 1.5-0.5 3-1-8.3-3.4-17-5.5 0.2-2.5-0.5-5-0.5 1.5-1 3-2.7-7.3 0.5-14-0.3-10.2-7.5-2-0.8-0.8-1.5-1.5 3-5 8-8-0.8-0.8-1.5-1.5-2.1 2.3-4.5 4 12.7-16 29-28.5 8.7-4.7 18.5-6.5 0.5 1 1 2 1.6-2.7 4.5-1.5-1.4 1.1-0.5 2.5 1-2 2 0 1.6 4.1 4.5 7.5-0.7 0.6-1 1.5 3.6 1.3 6 4-1.2 3-3.5 1 0.2 2-0.5 3.5 15.5 17.5 33 33-2.4 1.1-4.5-0.5 0.1 2.2 2 4 6.3 5.9 14.5 8.5-0.5 0.5-1 1 5.4 4 11.5 6.5 3.7 0.9 7-2 1.3 1.9 3.5 3-0.3 0.9-1 1.5-51 0.8-102 0.5z"/>
	</g>
	<g id="Layer">
		<path id="Layer" class="s95" d="m168.5 732.5q11.3 9.6 24 17.5 20.3 10.4 40 21.5-1.3 2.5-2.5 5-1.7 17.8 2.5 35 6 0 12 0 18 0 36 0 0.4 3.4-1 6 0-2.5 0-5-24 0.3-48-0.5-0.9-1.1-1.5-2.5-16.9 2.9-34.5 2-24.3-24.5-43.5-53-6.8-11.6-8.5-25-0.3-3.8 2-6.5 5-1 10 0 6.5 2.8 13 5.5z"/>
	</g>
	<g id="Layer">
		<path id="Layer" class="s96" d="m365.5 733.5q-0.4 7.1 2.5 1 1 2 2 0 4.6 7.3 8 14 0.5-0.5 1-1 0.5 2 1 4 2.4-1 4.5 1.5-1.3 2.5 1.5 0.5 0.5 2.7 2 1 0.5 2 1 4 0.5-0.5 1-1 0.7 1.8 2.5 2.5-0.5 0.5-1 1 1.5 0.5 3 1-1.3 2.5 1.5 0.5 2.6 7.5 8.5 12.5-0.5 1.5-1 3 10.3 10.1 20 20.5 6.3 4.5 13 8.5-1 1-2 2 16 0.5 32 1-15.8 0.3-31 1.5-40.5 0-81 0 4.5-39.3 11-78z"/>
	</g>
	<g id="Layer">
		<path id="Layer" class="s51" d="m732.5 764.5q0 17.5 0 35 0 6 0 12-28.5 1.7-57 0.5-0.8-0.6-1-1.5 1.7-0.1 3-1 1-3.3 2-7 3.1-1.6 5-4.5 25.7-14.1 48-33.5z"/>
	</g>
	<g id="Layer">
		<path id="Layer" class="s97" d="m848.5 771.5q1.5 0 3 0-3.8 17.3-20 24.5-6.8 2.7-14 3.5 0-1.5 0-3 24.5-1.5 31-25z"/>
	</g>
	<g id="Layer">
		<path id="Layer" class="s98" d="m732.5 799.5q1.5 5.7 1 12 70.1 0.5 140-1 19.1 3.1 39 6.5 13.8 3.3 26 10 3.1 2.6 5 6-0.2 3.2-3 5-4 2-8 4-16.3 2.8-32 8 25.7 3.4 51 9 2 1.5 0 3-3.6 0.8-7 2-44.9 4.8-90 8-301.4 12.7-603 4-73.6-2.4-147-8-14.6-1.5-29-4-12-3 0-6 24.5-4.1 49-8-13.8-3.8-28-6-7.5-2.2-14.5-5.5-1.2-2.2 0.5-4 17.2-12.4 38-17.5 9.4-2.5 19-4 28.3-0.3 56-1.5 17.6 0.9 34.5-2 0.6 1.4 1.5 2.5 24 0.8 48 0.5 0 2.5 0 5-0.3 4.5-1 9 2.4-0.4 4 1 0 2 0 4 4.5 0 9 0-5.2 1.5-11 1-13.6 1.6-27 4.5-12.1 4.4 1 7 14 2.2 28 4 97.6 7.3 195.5 6.5 78.3 0.4 156.5-2.5 40.1-1.4 80-5 11.6-1.4 22.5-5.5 0.9-1.4-0.5-2.5-28.5-7.1-58-7.5 0.4 1.9-1 3-0.3-6.2-2.5-12-0.3 2.8-1.5 5 0-8.5 0-17 0.5 0 1 0 0.2 0.9 1 1.5 28.5 1.2 57-0.5 0-6 0-12z"/>
	</g>
	<g id="Layer">
		<path id="Layer" class="s99" d="m609.5 811.5q5.7-1.5 12-1 0 0.5 0 1 0 6 0 12-1 1-2 2 1.2-6.9 1-14-5.5 0-11 0z"/>
	</g>
	<g id="Layer">
		<path id="Layer" class="s100" d="m645.5 762.5q4.8 24.7 10 49 2.7 1.1 5 3 0 6 0 12-1.7 0.1-3 1-17.5 0-35 0-1.1-1.8-1-4 0-6 0-12 0.9 0.2 1.5 1 3.3-2.2 7.5-3 10.3-22.8 15-47z"/>
	</g>
	<g id="Layer">
		<path id="Layer" class="s101" d="m655.5 811.5q7 0 14 0-4.9 0.6-9 3-2.3-1.9-5-3z"/>
	</g>
	<g id="Layer">
		<path id="Layer" class="s102" d="m602.5 811.5q2.5 0 5 0 0.1 7.6-1 15-0.5 0-1 0-85.5-1.4-171-0.5-38.8 0.1-77 2.5-1.6 0.8-3.5 1-4.9-1.1-9.5-3 1.1-1.8 1-4 4 0 8 0-0.4-5.2 1-10 124.1 0.5 248-1z"/>
	</g>
	<g id="Layer">
		<path id="Layer" class="s103" d="m673.5 810.5q0 8.5 0 17-6.5-0.4-13-1 0-6 0-12 4.1-2.4 9-3 1.8-1.1 4-1z"/>
	</g>
	<g id="Layer">
		<path id="Layer" class="s104" d="m607.5 811.5q1 0 2 0 5.5 0 11 0 0.2 7.1-1 14 0.3 1.5-1 2-5.9-1-12-1 1.1-7.4 1-15z"/>
	</g>
	<g id="Layer">
		<path id="Layer" class="s105" d="m605.5 826.5q0 0.5 0 1-13.4 4.5-27 8.5-3.4 1.6-6.5 3.5-0.7 1.9-0.5 4 25.5 0.3 51-0.5 1.7-7.7 0-15.5 17.5 0 35 0-10.4 5.7-21 11.5-2.2 3 1 5 15.5 1 31 0 10 0.2 9-9.5 1.4-1.1 1-3 29.5 0.4 58 7.5 1.4 1.1 0.5 2.5-10.9 4.1-22.5 5.5-39.9 3.6-80 5-78.2 2.9-156.5 2.5-97.9 0.8-195.5-6.5-14-1.8-28-4-13.1-2.6-1-7 13.4-2.9 27-4.5 0 6 0 12 32 0.3 64-0.5 3.8-0.3 7-1.5 18.4-1.2 37-1.5 3.9-4.2-2-6-14.3-4.4-29-6.5 38.2-2.4 77-2.5 85.5-0.9 171 0.5z"/>
	</g>
	<g id="Layer">
		<path id="Layer" class="s106" d="m322.5 822.5q11.5 0 23 0 0.1 2.2-1 4-10.9 1.3-22 1 0-2.5 0-5z"/>
	</g>
	<g id="Layer">
		<path id="Layer" class="s107" d="m323.5 823.5q8.5-0.2 17 0.5-4 1 0 2-8.5 0.7-17 0.5 0-1.5 0-3z"/>
	</g>
	<g id="Layer">
		<path id="Layer" class="s108" d="m605.5 827.5q0-0.5 0-1 0.5 0 1 0 6.1 0 12 1-6.2 0.9-13 0z"/>
	</g>
	<g id="Layer">
		<path id="Layer" class="s109" d="m282.5 827.5q10.5-0.2 21 1 0 1 0 2-6.2-0.4-12 1-4.5 0-9 0 0-2 0-4z"/>
	</g>
	<g id="Layer">
		<path id="Layer" class="s110" d="m319.5 822.5q1.5 0 3 0 0 2.5 0 5-1.3 0.5-1 2-1.4 1.1-1 3-8.9 0.4-17-2 0-1 0-2 7.1 0.5 14-1 0.8-2.8 2-5z"/>
	</g>
	<g id="Layer">
		<path id="Layer" class="s111" d="m677.5 834.5q1 9.7-9 9.5-15.5 1-31 0-3.2-2-1-5 10.6-5.8 21-11.5 1.3-0.9 3-1 6.5 0.6 13 1 1.2-2.2 1.5-5 2.2 5.8 2.5 12z"/>
	</g>
	<g id="Layer">
		<path id="Layer" class="s112" d="m621.5 823.5q-0.1 2.2 1 4 1.7 7.8 0 15.5-25.5 0.8-51 0.5-0.2-2.1 0.5-4 3.1-1.9 6.5-3.5 13.6-4 27-8.5 6.8 0.9 13 0 1.3-0.5 1-2 1-1 2-2z"/>
	</g>
	<g id="Layer">
		<path id="Layer" class="s113" d="m344.5 826.5q4.6 1.9 9.5 3 1.9-0.2 3.5-1 14.7 2.1 29 6.5 5.9 1.8 2 6-18.6 0.3-37 1.5-14.1-5.3-29-8.5-1.3-2-1-4.5-0.3-1.5 1-2 11.1 0.3 22-1z"/>
	</g>
	<g id="Layer">
		<path id="Layer" class="s114" d="m321.5 829.5q-0.3 2.5 1 4.5 14.9 3.2 29 8.5-3.2 1.2-7 1.5-32 0.8-64 0.5 0-6 0-12 5.8 0.5 11-1 5.8-1.4 12-1 8.1 2.4 17 2-0.4-1.9 1-3z"/>
	</g>
</svg>