<?xml version="1.0" encoding="utf-8"?>
<svg version="1.0" xmlns="http://www.w3.org/2000/svg" width="3500" height="2000" viewBox="0 0 3500 2000" preserveAspectRatio="xMidYMid meet">

 <g fill="#ffffff">
  <path d="M0 1000 l0 -1000 1750 0 1750 0 0 1000 0 1000 -1750 0 -1750 0 0 -1000z m1363.1 102.3 c47.1 -47.2 47.7 -47.9 51.8 -56.3 6.8 -14.1 7.1 -16.3 7.1 -52.6 0 -24.7 -0.4 -34.1 -1.5 -40.5 -4.2 -22.7 -13.4 -40.5 -29.3 -57.1 -47.3 -49.3 -128.3 -43.5 -167.9 11.9 l-4.8 6.8 -0.3 -30.2 -0.2 -30.2 -2.6 -2 c-3.4 -2.7 -6.4 -2.7 -9.8 0 l-2.6 2 0 143.5 c0 142.1 0 143.4 2 145.4 2.7 2.7 7.7 2.6 10.7 -0.2 l2.3 -2.1 0 -41.1 0 -41.1 45.8 45.8 c39.8 39.8 46.1 45.7 48.7 45.7 2.6 0 9.1 -6.1 50.6 -47.7z m56.6 40.5 l2.3 -2.1 0 -45.5 0 -45.4 -4.9 7.4 c-2.7 4 -6.3 8.6 -8 10.2 l-3.1 3 0 33.2 c0 33.6 0.4 37.6 3.7 40.2 2.6 1.9 7.4 1.4 10 -1z m232.4 -56.2 c7.4 -1.6 15 -5.1 19.8 -9.1 l3.1 -2.7 0 5.1 0 5.1 10.5 0 10.5 0 0 -57 0 -57 -10.5 0 -10.4 0 -0.3 38.3 -0.3 38.2 -3 5.4 c-11.8 21.3 -46 18.9 -54 -3.8 -1.2 -3.6 -1.5 -10.8 -1.5 -41.2 l0 -36.9 -11 0 -11 0 0 37.4 c0 20.8 0.4 39.7 1 42.7 3.2 17.1 17.6 31.5 35.3 35.4 8.1 1.8 13.7 1.8 21.8 0.1z m205.7 -1.5 c8.2 -2.5 13.9 -6 19.1 -11.6 6.6 -7.1 8.6 -12.4 8.6 -22.5 0 -7.3 -0.4 -9.3 -2.8 -14.2 -3.3 -6.8 -9.1 -12.1 -16.1 -14.7 -2.8 -1 -10.5 -2.6 -17.1 -3.5 -17.6 -2.4 -23.3 -3.7 -26.8 -6 -8.6 -5.9 -4.3 -19.2 7.5 -23.2 3.6 -1.2 7.1 -1.5 12.3 -1.2 11.3 0.7 17.2 4.9 19.9 14.1 0.5 1.5 1.9 1.7 11.1 1.7 l10.5 0 0 -3.3 c0 -18.5 -24.1 -34.7 -48 -32.2 -17.3 1.8 -29.5 9.2 -36.2 21.7 -1.9 3.6 -2.3 5.8 -2.3 13.8 0 8.7 0.3 10 3 14.9 5.5 9.9 15.1 14.7 34 17.1 18.4 2.3 26.2 4.8 28.5 8.9 0.5 1.1 1 4.2 1 7 0 5.9 -2.8 9.9 -9.4 13.4 -5.6 3 -21.1 3.2 -26.8 0.4 -5.2 -2.6 -8.6 -6.3 -10 -10.8 l-1.1 -3.9 -10.9 0 -11 0 0.7 4.3 c1 6.8 6.1 16.2 11.2 20.6 12.5 11 33.3 14.8 51.1 9.2z m112.7 1.4 c11.8 -2.1 23.1 -8 31.7 -16.6 3.7 -3.8 6.8 -7.2 6.8 -7.6 -0.1 -0.4 -3.9 -3.1 -8.5 -6 l-8.5 -5.2 -4.8 4.8 c-18.6 18.6 -53.2 14.1 -64.5 -8.6 -1.3 -2.6 -2.7 -6 -3.1 -7.5 l-0.6 -2.8 47.5 0 47.5 0 0.6 -2.6 c1 -3.8 -0.3 -18.1 -2.2 -24.4 -9.7 -32.7 -42.4 -49.1 -76.5 -38.4 -18.1 5.7 -32.4 21.1 -37.4 40.5 -2.1 7.7 -2.3 22.3 -0.6 29.9 2 8.5 7.9 19.7 13.8 26.1 14.8 15.9 35.8 22.5 58.8 18.4z m214.1 -0.9 c7.5 -2 16.9 -7.3 21 -11.9 11.6 -12.8 11.7 -33.1 0.3 -44.5 -6.4 -6.5 -14.1 -9.1 -34.7 -11.7 -18.4 -2.3 -24.2 -5.5 -24.2 -13.2 0 -9.3 7.3 -15.3 19.4 -16.1 3.9 -0.2 9 0.1 11.4 0.7 5.7 1.6 12 7.3 12.8 11.7 l0.6 3.4 11 0 11.1 0 -0.7 -4.7 c-1.4 -10.8 -9.4 -20.9 -20.3 -26 -19 -8.8 -43.9 -5.4 -57.3 7.9 -10.6 10.6 -12.7 26.9 -5 39.1 5.9 9.4 15.1 13.5 36.3 16.2 15.8 2 19.5 3.1 23.4 7 6.4 6.4 3.6 16.6 -6 21.4 -14.2 7 -35.1 1.3 -37.2 -10.2 l-0.7 -3.7 -10.9 0 -10.9 0 0 3 c0 5.1 3.9 13.7 8.7 19 6.6 7.3 15.1 11.9 26.3 14 5.7 1.1 19 0.4 25.6 -1.4z m-696.6 -37.1 c0 -34.1 0.1 -36.8 2 -41.8 4.2 -11.3 14.8 -18.1 28 -18 12.9 0.1 22.1 5.8 27.2 16.8 2.2 4.9 2.3 5.8 2.6 42.3 l0.3 37.2 10.5 0 10.4 0 0 -38.7 c0 -22.5 -0.5 -40.6 -1.1 -43.2 -7.1 -30.8 -46.9 -45 -74.4 -26.6 l-5 3.4 -0.3 -4.4 -0.3 -4.5 -10.5 0 -10.4 0 0 57 0 57 10.5 0 10.5 0 0 -36.5z m257 -0.7 c0 -41.8 0.1 -42.2 7.4 -48.6 7.3 -6.4 10.8 -7.6 25.1 -8.2 l13 -0.5 0.3 -9.8 0.3 -9.9 -13.8 0.4 c-12.4 0.3 -14.4 0.6 -19.4 2.9 -3.1 1.5 -7.5 4.3 -9.8 6.4 l-4.1 3.7 0 -6.6 0 -6.6 -10.5 0 -10.5 0 0 57 0 57 11 0 11 0 0 -37.2z m310 -49.3 l0 -86.6 -10.7 0.3 -10.8 0.3 -0.3 86.3 -0.2 86.2 11 0 11 0 0 -86.5z m49 29.5 l0 -57 -10.5 0 -10.5 0 0 57 0 57 10.5 0 10.5 0 0 -57z m192 47.6 l0 -9.4 -13.2 -0.4 c-15.7 -0.4 -18.9 -1.6 -22.5 -8.8 -2.2 -4.3 -2.3 -5.2 -2.3 -35.7 l0 -31.3 19 0 19 0 0 -9.5 0 -9.5 -19 0 -19 0 0 -11 0 -11 -11 0 -11 0 0 11 0 11 -8 0 -8 0 0 9.5 0 9.5 7.9 0 7.9 0 0.4 34.8 c0.5 39.1 0.7 40.4 7.9 48.6 8.5 9.6 14.1 11.4 35.7 11.5 l16.2 0.1 0 -9.4z m-195.5 -133.6 c7.2 -3.5 9.9 -11 6.6 -18.4 -2.5 -5.8 -6.9 -8.6 -13.6 -8.6 -9.5 0 -16 6.5 -15.2 15.3 1 11.1 11.8 16.8 22.2 11.7z"/>
  <path d="M1270.4 1088.8 c-24.9 -25 -43.2 -44.2 -44.8 -46.9 -6.2 -11 -6.5 -12.8 -6.6 -49.7 -0.2 -32.9 -0.1 -33.9 2.3 -43.2 3 -11.6 6.1 -18.7 12.2 -28.2 12.3 -18.9 31.2 -32.9 53.2 -39.4 12.6 -3.7 31.1 -4.4 44.3 -1.6 37.5 7.7 66.3 36.7 73.6 74 0.8 4.1 1.4 9.6 1.4 12.4 l0 5 -4.2 -4.2 c-13.3 -13.2 -30.6 -19.7 -50.7 -18.8 -13.8 0.7 -25.5 4.7 -37.2 13 -1.3 0.9 -2.5 0.5 -6.3 -2.1 -19.1 -13.2 -46.3 -14.8 -67.7 -4 -3.5 1.7 -8.1 4.5 -10.1 6.1 l-3.8 3 0 11.4 0 11.4 6.5 -6.8 c16.2 -17.2 40.5 -21.4 61.6 -10.6 2.6 1.3 5.1 2.9 5.5 3.5 0.3 0.6 -2.1 3.9 -5.9 7.8 -9.4 9.6 -11.2 13.5 -11.2 24.6 0 7.4 0.4 9.7 2.3 13.2 3.5 6.6 7.9 11 14 14 7.8 3.8 19.3 4 26.6 0.4 10.3 -5.1 16.5 -14.4 17.3 -26 0.7 -10 -2.1 -16.4 -11.2 -26 l-7.3 -7.6 3.1 -2.1 c12.6 -8.1 30.2 -10 44.7 -4.9 15 5.3 27.5 18.4 32.2 33.8 1.7 5.7 2 8.6 1.6 17.5 -0.6 11.9 -2.4 17.8 -8.3 26.6 -1.9 2.8 -21.8 23.4 -44.2 45.9 l-40.8 40.7 -42.1 -42.2z m55.3 -150.4 c17.2 -10.6 17.4 -35 0.4 -45.1 -13.1 -7.9 -28.4 -4 -36.6 9.2 -2.7 4.3 -3 5.7 -3 12.9 0 9.1 1.9 13.7 7.7 19.3 5.7 5.5 11.2 7.4 19.5 7 5.9 -0.3 8.2 -1 12 -3.3z"/>
  <path d="M1304.9 923.1 c-2.3 -2.4 -2.9 -3.8 -2.9 -7.3 0.1 -10 10.6 -14.4 17.6 -7.4 7 7 2.6 17.5 -7.4 17.6 -3.5 0 -4.9 -0.6 -7.3 -2.9z"/>
  <path d="M1307 1019.2 c-2.9 -1.3 -5.6 -3.7 -7.4 -6.4 -2 -3.1 -2.3 -10.5 -0.6 -14 1.6 -3.1 12.1 -13.8 13.6 -13.8 1.6 0 12.2 11.4 13.4 14.5 2.6 6.9 0 14.7 -6.2 18.5 -3.3 2 -9.7 2.6 -12.8 1.2z"/>
  <path d="M1919 1017.5 c0 -4.4 4.7 -13.3 9.4 -18 6.1 -6.1 12.1 -9.1 21 -10.5 16.9 -2.7 33 4.8 39.5 18.3 1.7 3.4 3.3 7.4 3.7 9 l0.6 2.7 -37.1 0 c-31.9 0 -37.1 -0.2 -37.1 -1.5z"/>
 </g>
</svg>